<svg xmlns="http://www.w3.org/2000/svg" version="1.1" xmlns:xlink="http://www.w3.org/1999/xlink" width="200" height="200"><svg xmlns="http://www.w3.org/2000/svg" version="1.1" xmlns:xlink="http://www.w3.org/1999/xlink" width="200" height="200"><svg xmlns="http://www.w3.org/2000/svg" version="1.1" xmlns:xlink="http://www.w3.org/1999/xlink" viewBox="0 0 200 200"><rect width="200" height="200" fill="url('#gradient')"></rect><defs><linearGradient id="gradient" gradientTransform="rotate(45 0.5 0.5)"><stop offset="0%" stop-color="#8ee3eb"></stop><stop offset="100%" stop-color="#ab8bff"></stop></linearGradient></defs><g><g fill="#1d4c4f" transform="matrix(1.760963026655202,0,0,1.760963026655202,8.110331577262485,112.93790608362606)" stroke="#1b5f6f" stroke-width="0.2"><path d="M1.07-14.22L5.58-14.22L8.75-4.33L11.91-14.22L16.43-14.22L16.43 0L12.99 0L12.99-3.32L13.32-10.12L9.88 0L7.62 0L4.17-10.13L4.50-3.32L4.50 0L1.07 0L1.07-14.22ZM21.03-10.57L22.67-3.92L24.34-10.57L27.80-10.57L24.36 0L21.00 0L17.55-10.57L21.03-10.57ZM28.23-4.82L28.22-5.38Q28.22-6.96 28.84-8.20Q29.45-9.43 30.61-10.10Q31.76-10.76 33.31-10.76L33.31-10.76Q35.68-10.76 37.05-9.29Q38.42-7.82 38.42-5.29L38.42-5.29L38.42-5.18Q38.42-2.71 37.05-1.25Q35.67 0.20 33.33 0.20L33.33 0.20Q31.07 0.20 29.71-1.16Q28.34-2.51 28.23-4.82L28.23-4.82ZM31.52-5.77L31.51-5.18Q31.51-3.71 31.97-3.03Q32.43-2.34 33.33-2.34L33.33-2.34Q35.09-2.34 35.13-5.05L35.13-5.05L35.13-5.38Q35.13-8.22 33.31-8.22L33.31-8.22Q31.66-8.22 31.52-5.77L31.52-5.77ZM43.34-10.57L43.34 0L40.04 0L40.04-10.57L43.34-10.57ZM39.84-13.29L39.84-13.29Q39.84-13.99 40.35-14.44Q40.86-14.89 41.67-14.89Q42.48-14.89 42.99-14.44Q43.50-13.99 43.50-13.29Q43.50-12.59 42.99-12.14Q42.48-11.69 41.67-11.69Q40.86-11.69 40.35-12.14Q39.84-12.59 39.84-13.29ZM50.48 0.20L50.48 0.20Q48.05 0.20 46.54-1.25Q45.04-2.71 45.04-5.03L45.04-5.03L45.04-5.30Q45.04-6.92 45.64-8.16Q46.24-9.40 47.39-10.08Q48.54-10.76 50.13-10.76L50.13-10.76Q52.35-10.76 53.64-9.38Q54.93-8.00 54.93-5.53L54.93-5.53L54.93-4.25L48.39-4.25Q48.56-3.36 49.16-2.85Q49.76-2.34 50.70-2.34L50.70-2.34Q52.27-2.34 53.14-3.44L53.14-3.44L54.65-1.66Q54.03-0.81 52.91-0.31Q51.78 0.20 50.48 0.20ZM50.11-8.22L50.11-8.22Q48.66-8.22 48.39-6.31L48.39-6.31L51.71-6.31L51.71-6.56Q51.73-7.35 51.31-7.79Q50.89-8.22 50.11-8.22ZM69.82-8.79L65.12-2.54L69.93-2.54L69.93 0L60.96 0L60.96-1.84L65.64-8.03L61.16-8.03L61.16-10.57L69.82-10.57L69.82-8.79ZM70.97-4.82L70.96-5.38Q70.96-6.96 71.57-8.20Q72.19-9.43 73.34-10.10Q74.49-10.76 76.04-10.76L76.04-10.76Q78.42-10.76 79.79-9.29Q81.15-7.82 81.15-5.29L81.15-5.29L81.15-5.18Q81.15-2.71 79.78-1.25Q78.41 0.20 76.06 0.20L76.06 0.20Q73.81 0.20 72.44-1.16Q71.07-2.51 70.97-4.82L70.97-4.82ZM74.26-5.77L74.25-5.18Q74.25-3.71 74.71-3.03Q75.17-2.34 76.06-2.34L76.06-2.34Q77.82-2.34 77.86-5.05L77.86-5.05L77.86-5.38Q77.86-8.22 76.04-8.22L76.04-8.22Q74.39-8.22 74.26-5.77L74.26-5.77ZM82.20-4.82L82.19-5.38Q82.19-6.96 82.80-8.20Q83.42-9.43 84.57-10.10Q85.72-10.76 87.28-10.76L87.28-10.76Q89.65-10.76 91.02-9.29Q92.38-7.82 92.38-5.29L92.38-5.29L92.38-5.18Q92.38-2.71 91.01-1.25Q89.64 0.20 87.29 0.20L87.29 0.20Q85.04 0.20 83.67-1.16Q82.30-2.51 82.20-4.82L82.20-4.82ZM85.49-5.77L85.48-5.18Q85.48-3.71 85.94-3.03Q86.40-2.34 87.29-2.34L87.29-2.34Q89.05-2.34 89.09-5.05L89.09-5.05L89.09-5.38Q89.09-8.22 87.28-8.22L87.28-8.22Q85.63-8.22 85.49-5.77L85.49-5.77ZM93.77-10.57L96.86-10.57L96.96-9.33Q98.06-10.76 99.98-10.76L99.98-10.76Q101.63-10.76 102.45-9.78Q103.26-8.79 103.29-6.81L103.29-6.81L103.29 0L99.99 0L99.99-6.67Q99.99-7.47 99.67-7.85Q99.35-8.22 98.50-8.22L98.50-8.22Q97.53-8.22 97.06-7.46L97.06-7.46L97.06 0L93.77 0L93.77-10.57Z"></path></g></g></svg></svg><style>@media (prefers-color-scheme: light) { :root { filter: none; } }
@media (prefers-color-scheme: dark) { :root { filter: none; } }
</style></svg>